<svg width="9" height="10" viewBox="0 0 9 10" fill="none" xmlns="http://www.w3.org/2000/svg">
<path d="M4.5 10C3.99167 10 3.47083 9.90833 2.9375 9.725C2.40417 9.54167 1.92083 9.29167 1.4875 8.975C1.05417 8.65833 0.697917 8.2875 0.41875 7.8625C0.139583 7.4375 0 6.98333 0 6.5V5L2 6.5L1.225 7.275C1.46667 7.7 1.85 8.06667 2.375 8.375C2.9 8.68333 3.44167 8.87917 4 8.9625V4.5H2.5V3.5H4V2.9125C3.70833 2.80417 3.46875 2.62292 3.28125 2.36875C3.09375 2.11458 3 1.825 3 1.5C3 1.08333 3.14583 0.729167 3.4375 0.4375C3.72917 0.145833 4.08333 0 4.5 0C4.91667 0 5.27083 0.145833 5.5625 0.4375C5.85417 0.729167 6 1.08333 6 1.5C6 1.825 5.90625 2.11458 5.71875 2.36875C5.53125 2.62292 5.29167 2.80417 5 2.9125V3.5H6.5V4.5H5V8.9625C5.55833 8.87917 6.1 8.68333 6.625 8.375C7.15 8.06667 7.53333 7.7 7.775 7.275L7 6.5L9 5V6.5C9 6.98333 8.86042 7.4375 8.58125 7.8625C8.30208 8.2875 7.94583 8.65833 7.5125 8.975C7.07917 9.29167 6.59583 9.54167 6.0625 9.725C5.52917 9.90833 5.00833 10 4.5 10V10M4.5 2C4.64167 2 4.76042 1.95208 4.85625 1.85625C4.95208 1.76042 5 1.64167 5 1.5C5 1.35833 4.95208 1.23958 4.85625 1.14375C4.76042 1.04792 4.64167 1 4.5 1C4.35833 1 4.23958 1.04792 4.14375 1.14375C4.04792 1.23958 4 1.35833 4 1.5C4 1.64167 4.04792 1.76042 4.14375 1.85625C4.23958 1.95208 4.35833 2 4.5 2V2" fill="#261900"/>
</svg>
