<svg width="19" height="18" viewBox="0 0 19 18" fill="none" xmlns="http://www.w3.org/2000/svg">
<path d="M0 17.4167V15.5833H8.25V5.33958C7.85278 5.20208 7.50903 4.98819 7.21875 4.69792C6.92847 4.40764 6.71458 4.06389 6.57708 3.66667H3.66667L6.41667 10.0833C6.41667 10.8472 6.10347 11.4965 5.47708 12.0313C4.85069 12.566 4.09444 12.8333 3.20833 12.8333C2.32222 12.8333 1.56597 12.566 0.939583 12.0313C0.313195 11.4965 0 10.8472 0 10.0833L2.75 3.66667H0.916667V1.83333H6.57708C6.76042 1.29861 7.08889 0.859375 7.5625 0.515625C8.03611 0.171875 8.57083 0 9.16667 0C9.7625 0 10.2972 0.171875 10.7708 0.515625C11.2444 0.859375 11.5729 1.29861 11.7563 1.83333H17.4167V3.66667H15.5833L18.3333 10.0833C18.3333 10.8472 18.0201 11.4965 17.3938 12.0313C16.7674 12.566 16.0111 12.8333 15.125 12.8333C14.2389 12.8333 13.4826 12.566 12.8563 12.0313C12.2299 11.4965 11.9167 10.8472 11.9167 10.0833L14.6667 3.66667H11.7563C11.6188 4.06389 11.4049 4.40764 11.1146 4.69792C10.8243 4.98819 10.4806 5.20208 10.0833 5.33958V15.5833H18.3333V17.4167H0ZM13.4063 10.0833H16.8438L15.125 6.09583L13.4063 10.0833ZM1.48958 10.0833H4.92708L3.20833 6.09583L1.48958 10.0833ZM9.16667 3.66667C9.42639 3.66667 9.6441 3.57882 9.81979 3.40313C9.99549 3.22743 10.0833 3.00972 10.0833 2.75C10.0833 2.49028 9.99549 2.27257 9.81979 2.09688C9.6441 1.92118 9.42639 1.83333 9.16667 1.83333C8.90694 1.83333 8.68924 1.92118 8.51354 2.09688C8.33785 2.27257 8.25 2.49028 8.25 2.75C8.25 3.00972 8.33785 3.22743 8.51354 3.40313C8.68924 3.57882 8.90694 3.66667 9.16667 3.66667Z" fill="#261900"/>
</svg>
