<svg width="36" height="39" viewBox="0 0 36 39" fill="none" xmlns="http://www.w3.org/2000/svg">
<path d="M12.2 14.5L2.1 8.85L18 0L33.9 8.85L23.8 14.5C23.0333 13.7 22.15 13.0833 21.15 12.65C20.15 12.2167 19.1 12 18 12C16.9 12 15.85 12.2167 14.85 12.65C13.85 13.0833 12.9667 13.7 12.2 14.5ZM16 38.9L0 30V12.25L10.25 18C10.15 18.3333 10.0833 18.6583 10.05 18.975C10.0167 19.2917 10 19.6333 10 20C10 21.8333 10.55 23.4667 11.65 24.9C12.75 26.3333 14.2 27.2833 16 27.75V38.9ZM18 24C16.9 24 15.9583 23.6083 15.175 22.825C14.3917 22.0417 14 21.1 14 20C14 18.9 14.3917 17.9583 15.175 17.175C15.9583 16.3917 16.9 16 18 16C19.1 16 20.0417 16.3917 20.825 17.175C21.6083 17.9583 22 18.9 22 20C22 21.1 21.6083 22.0417 20.825 22.825C20.0417 23.6083 19.1 24 18 24ZM20 38.9V27.75C21.8 27.2833 23.25 26.3333 24.35 24.9C25.45 23.4667 26 21.8333 26 20C26 19.6333 25.9833 19.2917 25.95 18.975C25.9167 18.6583 25.85 18.3333 25.75 18L36 12.25V30L20 38.9Z" fill="#731900"/>
</svg>
