<svg width="38" height="31" viewBox="0 0 38 31" fill="none" xmlns="http://www.w3.org/2000/svg">
<path d="M12.7387 30.7286C11.6971 30.7467 10.7991 30.3915 10.0444 29.6627C9.28978 28.934 8.90337 28.0488 8.88519 27.0073L8.78603 21.3263L14.4671 21.2271L14.3927 16.9663C13.2869 16.9225 12.2333 16.6962 11.2316 16.2875C10.23 15.8788 9.31148 15.2555 8.47601 14.4177L8.43965 12.3346L6.26192 12.3726L4.16743e-05 6.3256C1.11091 4.85394 2.49748 3.80369 4.15976 3.17482C5.82205 2.54596 7.50534 2.21666 9.20965 2.18691C10.0618 2.17203 10.8914 2.22069 11.6984 2.33289C12.5054 2.44509 13.3223 2.66761 14.1489 3.00046L14.1035 0.396655L36.8276 3.74626e-06L37.2573 24.6178C37.2849 26.1959 36.756 27.5469 35.6706 28.6708C34.5852 29.7947 33.2535 30.3705 31.6754 30.398L12.7387 30.7286ZM18.2544 21.161L29.6165 20.9627L29.6826 24.75C29.692 25.2866 29.8813 25.7332 30.2506 26.0898C30.6199 26.4464 31.0728 26.62 31.6093 26.6107C32.1459 26.6013 32.5925 26.412 32.9491 26.0427C33.3057 25.6734 33.4793 25.2205 33.47 24.6839L33.1064 3.85347L17.9569 4.1179L17.9768 5.25411L29.5372 16.4179L29.5834 19.069L26.9323 19.1153L21.4411 13.8125L21.069 14.1978C20.6348 14.6474 20.1762 15.0501 19.693 15.4058C19.2099 15.7615 18.7017 16.0387 18.1685 16.2374L18.2544 21.161ZM7.80544 8.55717L12.1609 8.48115L12.232 12.5526C12.6151 12.7984 13.0127 12.9651 13.4246 13.0527C13.8366 13.1402 14.2635 13.1801 14.7053 13.1724C15.4312 13.1597 16.0842 13.0378 16.6642 12.8067C17.2443 12.5756 17.8134 12.171 18.3715 11.593L18.7437 11.2076L16.0462 8.60275C15.115 7.70345 14.0773 7.0349 12.9331 6.59709C11.7889 6.15929 10.5698 5.95168 9.27576 5.97426C8.64454 5.98528 8.0457 6.04309 7.47925 6.14769C6.91279 6.25229 6.34717 6.40423 5.78237 6.60352L7.80544 8.55717ZM25.8952 24.8161L12.6395 25.0475L12.6725 26.9412L26.2123 26.7049C26.1127 26.4225 26.0365 26.1239 25.9836 25.8091C25.9308 25.4943 25.9013 25.1633 25.8952 24.8161ZM12.6725 26.9412C12.6676 26.6572 12.6624 26.3573 12.6568 26.0417C12.6513 25.7261 12.6456 25.3947 12.6395 25.0475C12.645 25.3631 12.6505 25.6788 12.656 25.9944C12.6615 26.31 12.667 26.6256 12.6725 26.9412Z" fill="#731900"/>
</svg>
