<svg width="10" height="11" viewBox="0 0 10 11" fill="none" xmlns="http://www.w3.org/2000/svg">
<path d="M8.425 10.4875C8.35833 10.4875 8.29583 10.4771 8.2375 10.4563C8.17917 10.4354 8.125 10.4 8.075 10.35L5.525 7.8C5.475 7.75 5.43958 7.69583 5.41875 7.6375C5.39792 7.57917 5.3875 7.51667 5.3875 7.45C5.3875 7.38333 5.39792 7.32083 5.41875 7.2625C5.43958 7.20417 5.475 7.15 5.525 7.1L6.5875 6.0375C6.6375 5.9875 6.69167 5.95208 6.75 5.93125C6.80833 5.91042 6.87083 5.9 6.9375 5.9C7.00417 5.9 7.06667 5.91042 7.125 5.93125C7.18333 5.95208 7.2375 5.9875 7.2875 6.0375L9.8375 8.5875C9.8875 8.6375 9.92292 8.69167 9.94375 8.75C9.96458 8.80833 9.975 8.87083 9.975 8.9375C9.975 9.00417 9.96458 9.06667 9.94375 9.125C9.92292 9.18333 9.8875 9.2375 9.8375 9.2875L8.775 10.35C8.725 10.4 8.67083 10.4354 8.6125 10.4563C8.55417 10.4771 8.49167 10.4875 8.425 10.4875ZM1.5625 10.5C1.49583 10.5 1.43125 10.4875 1.36875 10.4625C1.30625 10.4375 1.25 10.4 1.2 10.35L0.15 9.3C0.1 9.25 0.0625 9.19375 0.0375 9.13125C0.0125 9.06875 0 9.00417 0 8.9375C0 8.87083 0.0125 8.80833 0.0375 8.75C0.0625 8.69167 0.1 8.6375 0.15 8.5875L2.8 5.9375H3.8625L4.2875 5.5125L2.225 3.45H1.5125L0 1.9375L1.4125 0.525L2.925 2.0375V2.75L4.9875 4.8125L6.4375 3.3625L5.9 2.825L6.6 2.125H5.1875L4.8375 1.775L6.6125 0L6.9625 0.35V1.7625L7.6625 1.0625L9.4375 2.8375C9.57917 2.97917 9.6875 3.13958 9.7625 3.31875C9.8375 3.49792 9.875 3.6875 9.875 3.8875C9.875 4.0875 9.8375 4.27917 9.7625 4.4625C9.6875 4.64583 9.57917 4.80833 9.4375 4.95L8.375 3.8875L7.675 4.5875L7.15 4.0625L4.5625 6.65V7.7L1.9125 10.35C1.8625 10.4 1.80833 10.4375 1.75 10.4625C1.69167 10.4875 1.62917 10.5 1.5625 10.5Z" fill="#261900"/>
</svg>
