<svg width="56" height="55" viewBox="0 0 56 55" fill="none" xmlns="http://www.w3.org/2000/svg">
<path d="M49.5006 54.0374L32.9329 37.7564L39.1777 31.4016L55.7454 47.6827L49.5006 54.0374V54.0374M8.10216 54.3987L1.74742 48.1539L22.266 27.274L17.1217 22.2187L15.0401 24.337L11.1819 20.5455L11.2355 26.6953L9.15393 28.8135L7.94395e-05 19.8181L2.08167 17.6998L8.23144 17.6461L4.44886 13.929L15.0055 3.18648C15.9968 2.17779 17.0654 1.44344 18.2114 0.98342C19.3574 0.523402 20.5304 0.288157 21.7304 0.277685C22.9303 0.267213 24.1073 0.481951 25.2611 0.921898C26.415 1.36185 27.4963 2.07744 28.505 3.06867L21.6655 10.0286L25.4481 13.7458L23.3665 15.864L28.5108 20.9193L35.2016 14.1107C34.9968 13.5624 34.8293 12.9889 34.6991 12.39C34.5689 11.7911 34.5011 11.1917 34.4959 10.5917C34.4701 7.64179 35.4609 5.14555 37.4681 3.10296C39.4754 1.06036 41.954 0.0261933 44.9039 0.00045003C45.6538 -0.00609488 46.367 0.0626846 47.0432 0.206788C47.7195 0.350892 48.409 0.569884 49.1115 0.863764L41.7516 8.35328L47.1985 13.7059L54.5585 6.21644C54.9146 6.91335 55.1581 7.59876 55.2889 8.27264C55.4198 8.94652 55.4885 9.65845 55.4951 10.4084C55.5208 13.3583 54.5301 15.8546 52.5228 17.8971C50.5156 19.9397 48.037 20.9739 45.0871 20.9997C44.4871 21.0049 43.8867 20.9601 43.2859 20.8654C42.685 20.7706 42.1085 20.6006 41.5564 20.3554L8.10216 54.3987V54.3987" fill="#5D4201"/>
</svg>
